<?xml version="1.0" standalone="no"?>
<!DOCTYPE svg PUBLIC "-//W3C//DTD SVG 20010904//EN"
 "http://www.w3.org/TR/2001/REC-SVG-20010904/DTD/svg10.dtd">
<svg version="1.0" xmlns="http://www.w3.org/2000/svg"
 width="160.000000pt" height="160.000000pt" viewBox="0 0 160.000000 160.000000"
 preserveAspectRatio="xMidYMid meet">

<g transform="translate(0.000000,160.000000) scale(0.100000,-0.100000)"
fill="#000000" stroke="none">
<path d="M590 1593 c-340 -42 -580 -308 -580 -643 0 -511 565 -820 996 -545
l57 37 221 -221 c146 -145 229 -221 243 -221 35 0 73 38 73 73 0 28 -25 57
-219 251 l-219 219 39 59 c74 116 104 235 97 386 -17 329 -270 583 -603 605
-38 2 -86 3 -105 0z m195 -158 c188 -49 335 -216 365 -412 38 -247 -124 -495
-365 -558 -76 -19 -184 -19 -260 0 -188 49 -335 216 -365 412 -38 245 123 493
361 557 72 19 191 20 264 1z"/>
<path d="M629 1326 c-16 -8 -27 -25 -33 -53 -8 -35 -16 -44 -47 -58 -109 -50
-136 -173 -55 -250 18 -16 57 -39 87 -49 155 -54 159 -56 159 -81 0 -14 -8
-29 -19 -35 -28 -15 -102 -12 -151 5 -81 29 -122 15 -122 -42 0 -34 29 -58 91
-74 47 -12 49 -14 54 -52 6 -47 26 -69 61 -69 36 -1 55 19 62 63 5 29 13 40
36 50 71 29 110 83 110 155 0 87 -44 127 -196 178 -74 25 -92 35 -94 53 -5 36
29 47 135 39 92 -6 92 -6 110 20 15 23 15 29 2 52 -16 28 -31 38 -71 47 -20 4
-28 11 -28 28 -1 57 -47 95 -91 73z"/>
</g>
</svg>
